# xmcd CD database file
#
# Track frame offsets:
#	150
#	6052
#	23297
#	39854
#	58391
#	78864
#	94896
#	114699
#	140451
#	160650
#	184636
#	207590
#	239108
#	264956
#
# Disc length: 3915 seconds
#
# Revision: 2
# Processed by: cddbd v1.4b41PL1 Copyright (c) Steve Scherf et al.
# Submitted via: Feurio! 1.50.2ß - http://www.feurio.com
#
DISCID=b20f490e
DTITLE=Limp Bizkit - Chocolate starfish and the hot dog flavored water
DYEAR=1900
DGENRE=
TTITLE0=into
TTITLE1=hot dog
TTITLE2=my generation
TTITLE3=full nelson
TTITLE4=my way
TTITLE5=rollin`
TTITLE6=livin` it up
TTITLE7=the one
TTITLE8=getcha groove on
TTITLE9=take a look around
TTITLE10=it`ll be ok
TTITLE11=boiler
TTITLE12=hold on
TTITLE13=rollin` (remix)
EXTD=
EXTT0=
EXTT1=
EXTT2=
EXTT3=
EXTT4=
EXTT5=
EXTT6=
EXTT7=
EXTT8=
EXTT9=
EXTT10=
EXTT11=
EXTT12=
EXTT13=
PLAYORDER=
